<svg width="24" height="24" viewBox="0 0 24 24" fill="none" xmlns="http://www.w3.org/2000/svg">
<path fill-rule="evenodd" clip-rule="evenodd" d="M8.00015 10C8.00015 6.68629 10.6864 4 14.0002 4C17.3139 4 20.0002 6.68629 20.0002 10C20.0002 13.3137 17.3139 16 14.0002 16C10.6864 16 8.00015 13.3137 8.00015 10ZM14.0002 2C9.58187 2 6.00015 5.58172 6.00015 10C6.00015 11.8487 6.62722 13.5509 7.68026 14.9056L2.29297 20.2929L3.70718 21.7071L9.09446 16.3198C10.4492 17.3729 12.1514 18 14.0002 18C18.4184 18 22.0002 14.4183 22.0002 10C22.0002 5.58172 18.4184 2 14.0002 2Z" fill="#DBE3F5"/>
</svg>
