<svg width="24" height="24" viewBox="0 0 24 24" fill="none" xmlns="http://www.w3.org/2000/svg">
<path fill-rule="evenodd" clip-rule="evenodd" d="M13.2742 12.0564L19.9035 5.42711C20.0552 5.2755 20.1387 5.07385 20.1387 4.8594C20.1387 4.64487 20.0552 4.44322 19.9035 4.29161C19.7518 4.13991 19.5502 4.0564 19.3357 4.0564C19.1212 4.0564 18.9196 4.13991 18.768 4.29161L12.1387 10.9209L5.50938 4.29161C5.19635 3.97858 4.68692 3.97858 4.37389 4.29161C4.22219 4.44322 4.13867 4.64487 4.13867 4.8594C4.13867 5.07385 4.22219 5.2755 4.37389 5.42711L11.0032 12.0564L4.37389 18.6857C4.22219 18.8373 4.13867 19.0389 4.13867 19.2534C4.13867 19.4679 4.22219 19.6696 4.37389 19.8212C4.68692 20.1342 5.19635 20.1342 5.50938 19.8212L12.1387 13.1919L18.768 19.8212C18.9196 19.9729 19.1212 20.0564 19.3357 20.0564C19.5502 20.0564 19.7518 19.9729 19.9035 19.8212C20.0552 19.6696 20.1387 19.4679 20.1387 19.2534C20.1387 19.0389 20.0552 18.8373 19.9035 18.6857L13.2742 12.0564Z" fill="#DBE3F5" stroke="#DBE3F5" stroke-width="0.5"/>
</svg>
