<svg width="18" height="18" viewBox="0 0 18 18" fill="none" xmlns="http://www.w3.org/2000/svg">
<path fill-rule="evenodd" clip-rule="evenodd" d="M9 0C6.23858 0 4 2.23858 4 5C4 6.34549 4.53146 7.56685 5.3959 8.46562C2.25157 9.58234 0 12.5838 0 16.1111C0 17.1543 0.845685 18 1.88889 18H16.1111C17.1543 18 18 17.1543 18 16.1111C18 12.5838 15.7484 9.58234 12.6041 8.46562C13.4685 7.56685 14 6.34549 14 5C14 2.23858 11.7614 0 9 0ZM9 8C10.6569 8 12 6.65685 12 5C12 3.34315 10.6569 2 9 2C7.34315 2 6 3.34315 6 5C6 6.65685 7.34315 8 9 8ZM9 10H8.11111C4.77315 10 2.06025 12.6762 2.00099 16H15.999C15.9397 12.6762 13.2268 10 9.88889 10H9Z" fill="#DBE3F5"/>
</svg>
