<svg width="32" height="32" viewBox="0 0 32 32" fill="none" xmlns="http://www.w3.org/2000/svg">
<circle cx="16" cy="16" r="16" fill="#F7F8FB"/>
<path fill-rule="evenodd" clip-rule="evenodd" d="M22.5438 8.87868C21.3723 7.70711 19.4728 7.70711 18.3012 8.87868L9.00681 18.1731C8.85943 18.3204 8.76179 18.5102 8.72752 18.7158L8.01362 22.9992C7.96053 23.3178 8.06454 23.6424 8.29291 23.8707C8.52127 24.0991 8.84585 24.2031 9.16441 24.15L13.4479 23.4361C13.6534 23.4018 13.8432 23.3042 13.9906 23.1568L23.2849 13.8624C24.4565 12.6909 24.4565 10.7914 23.2849 9.61979L22.5438 8.87868ZM19.7154 10.2929C20.1059 9.90237 20.7391 9.90237 21.1296 10.2929L21.8707 11.034C22.2613 11.4245 22.2613 12.0577 21.8707 12.4482L21.1364 13.1825L18.9811 11.0272L19.7154 10.2929ZM17.5669 12.4414L10.6476 19.3607L10.2166 21.9471L12.8029 21.516L19.7222 14.5967L17.5669 12.4414Z" fill="#DBE3F5"/>
</svg>
