<svg width="14" height="21" viewBox="0 0 14 21" fill="none" xmlns="http://www.w3.org/2000/svg">
<path fill-rule="evenodd" clip-rule="evenodd" d="M7.80326 19.8008C9.64209 17.0029 14 10.0504 14 7C14 3.13401 10.866 0 7 0C3.13401 0 0 3.13401 0 7C0 10.0504 4.35791 17.0029 6.19674 19.8008C6.58093 20.3854 7.41907 20.3854 7.80326 19.8008ZM7 11.375C9.41625 11.375 11.375 9.41625 11.375 7C11.375 4.58375 9.41625 2.625 7 2.625C4.58375 2.625 2.625 4.58375 2.625 7C2.625 9.41625 4.58375 11.375 7 11.375Z" fill="#DBE3F5"/>
</svg>
