<svg width="24" height="24" viewBox="0 0 24 24" fill="none" xmlns="http://www.w3.org/2000/svg">
<path fill-rule="evenodd" clip-rule="evenodd" d="M10 3V5.00001H14V3H16V5.00001H17.3327C18.9895 5.00001 20.3327 6.34315 20.3327 8.00001V17.3333C20.3327 18.9902 18.9895 20.3333 17.3327 20.3333H6.66602C5.00916 20.3333 3.66602 18.9902 3.66602 17.3333V8C3.66602 6.34315 5.00916 5.00001 6.66602 5.00001H8V3H10ZM14 7.00001V9H16V7.00001H17.3327C17.885 7.00001 18.3327 7.44772 18.3327 8.00001V17.3333C18.3327 17.8856 17.885 18.3333 17.3327 18.3333H6.66602C6.11373 18.3333 5.66602 17.8856 5.66602 17.3333V8C5.66602 7.44772 6.11373 7.00001 6.66602 7.00001H8V9H10V7.00001H14Z" fill="#DBE3F5"/>
</svg>
