<svg width="18" height="16" viewBox="0 0 18 16" fill="none" xmlns="http://www.w3.org/2000/svg">
<path fill-rule="evenodd" clip-rule="evenodd" d="M9.16734 0C8.59204 0 8.12567 0.466372 8.12567 1.04167V7H1.83398C1.2817 7 0.833984 7.44772 0.833984 8C0.833984 8.55228 1.2817 9 1.83398 9H8.12567V14.9583C8.12567 15.5336 8.59204 16 9.16734 16C9.74264 16 10.209 15.5336 10.209 14.9583V9H16.5007C17.053 9 17.5007 8.55229 17.5007 8C17.5007 7.44772 17.053 7 16.5007 7H10.209V1.04167C10.209 0.466372 9.74264 0 9.16734 0Z" fill="#DBE3F5"/>
</svg>
