<svg width="36" height="36" viewBox="0 0 36 36" fill="none" xmlns="http://www.w3.org/2000/svg">
<rect width="36" height="36" rx="18" fill="#F7F8FB"/>
<rect x="7.87422" y="10.5749" width="20.25" height="14.85" rx="2.325" stroke="#DBE3F5" stroke-width="1.35"/>
<path d="M20.9812 17.8791C20.8249 17.6725 20.5346 17.6495 20.356 17.8103L19.2619 18.8895C19.0833 19.0732 18.793 19.0503 18.6367 18.8436L15.9573 15.1695C15.7786 14.9398 15.4214 14.9398 15.2874 15.1924L11.0897 22.0815C10.8441 22.4718 11.1343 23 11.5809 23H23.415C23.8839 23 24.1741 22.4489 23.8839 22.0585L20.9812 17.8791Z" fill="#DBE3F5"/>
<path d="M21.7005 15.9797C22.5286 15.9797 23.1999 15.3084 23.1999 14.4803C23.1999 13.6522 22.5286 12.981 21.7005 12.981C20.8725 12.981 20.2012 13.6522 20.2012 14.4803C20.2012 15.3084 20.8725 15.9797 21.7005 15.9797Z" fill="#DBE3F5"/>
</svg>
