<svg width="28" height="28" viewBox="0 0 28 28" fill="none" xmlns="http://www.w3.org/2000/svg">
<path fill-rule="evenodd" clip-rule="evenodd" d="M14 28C21.732 28 28 21.732 28 14C28 6.26801 21.732 0 14 0C6.26801 0 0 6.26801 0 14C0 21.732 6.26801 28 14 28ZM13 7C13 6.44772 13.4477 6 14 6C14.5523 6 15 6.44772 15 7V13H21C21.5523 13 22 13.4477 22 14C22 14.5523 21.5523 15 21 15H15V21C15 21.5523 14.5523 22 14 22C13.4477 22 13 21.5523 13 21V15H7C6.44772 15 6 14.5523 6 14C6 13.4477 6.44772 13 7 13H13V7Z" fill="#DBE3F5"/>
</svg>
